<?xml version="1.0" encoding="UTF-8"?> <svg xmlns="http://www.w3.org/2000/svg" width="74" height="85" viewBox="0 0 74 85" fill="none"><g clip-path="url(#clip0_243_1124)"><path d="M1.12001 84.88C1.32001 84.68 1.21001 84.48 1.07001 84.32C0.960007 84.19 0.820007 84.08 0.670007 84C0.150007 83.74 0.0200065 83.25 0.0200065 82.76C6.54347e-06 78.79 0.0100065 74.81 0.0100065 70.84C0.0100065 68.61 -0.0199935 66.37 0.0200065 64.14C0.0400065 63.03 0.180007 61.92 0.260007 60.81C0.350007 59.51 0.680007 58.26 1.12001 57.05C1.65001 55.6 2.18001 54.13 3.07001 52.84C3.75001 51.86 4.36001 50.83 5.10001 49.9C5.74001 49.1 6.49001 48.38 7.26001 47.7C10.03 45.26 13.24 43.64 16.84 42.83C18.34 42.49 19.84 42.29 21.38 42.36C22.2 42.4 22.75 42.85 23.17 43.49C24.4 45.35 25.61 47.22 26.84 49.09C27.67 50.35 28.51 51.6 29.35 52.86C29.4 52.93 29.45 53.02 29.51 53.04C29.62 53.07 29.76 53.09 29.86 53.04C29.92 53.02 29.96 52.87 29.96 52.78C29.99 51.92 30.01 51.05 30.03 50.19C30.03 50.08 30.03 49.96 30.03 49.85C30.07 48.62 30.1 47.39 30.16 46.16C30.21 45.12 30.97 44.32 31.96 44.28C33.26 44.24 34.56 44.22 35.86 44.21C37.13 44.2 38.41 44.21 39.68 44.21C40.08 44.21 40.48 44.24 40.88 44.29C41.72 44.39 42.04 44.78 42.25 45.66C42.51 46.76 42.39 47.86 42.43 48.97C42.47 49.96 42.5 50.96 42.53 51.95C42.53 52.31 42.53 52.67 42.53 53.03C42.53 53.19 42.58 53.36 42.6 53.5C43.12 53.45 43.33 53.12 43.56 52.75C44.1 51.87 44.7 51.02 45.26 50.15C45.75 49.4 46.21 48.64 46.69 47.88C47.13 47.18 47.58 46.48 48.02 45.78C48.29 45.35 48.54 44.91 48.82 44.49C49.19 43.93 49.61 43.39 49.96 42.81C50.15 42.5 50.41 42.38 50.74 42.37C51.53 42.36 52.33 42.32 53.11 42.37C53.82 42.42 54.52 42.58 55.22 42.72C55.96 42.87 56.69 43.04 57.42 43.22C57.83 43.33 58.23 43.49 58.64 43.63C59.89 44.06 61.04 44.71 62.2 45.33C63.7 46.14 64.97 47.24 66.18 48.43C66.47 48.72 66.78 48.98 67.07 49.27C67.29 49.49 67.49 49.72 67.68 49.96C68.21 50.65 68.76 51.33 69.24 52.05C69.58 52.55 69.85 53.1 70.1 53.65C70.44 54.37 70.71 55.12 71.04 55.85C71.4 56.65 71.66 57.48 71.82 58.34C72 59.29 72.28 60.23 72.38 61.19C72.51 62.56 72.56 63.94 72.57 65.32C72.6 69.2 72.61 73.08 72.6 76.96C72.6 78.91 72.52 80.87 72.46 82.82C72.44 83.3 72.15 83.67 71.81 83.97C71.47 84.27 71.09 84.51 70.61 84.56C70.56 84.56 70.52 84.6 70.47 84.68C70.57 84.69 70.67 84.7 70.76 84.73C70.82 84.75 70.87 84.81 70.92 84.85H1.12001V84.88ZM55.26 80.86C55.26 80.76 55.26 80.64 55.26 80.52C55.26 76.2 55.26 71.87 55.26 67.55C55.26 66.7 55.63 66.1 56.31 65.65C57.01 65.18 57.88 65.28 58.49 65.87C58.97 66.34 59.15 66.94 59.15 67.57C59.17 69.52 59.16 71.46 59.15 73.41C59.14 75.61 59.11 77.82 59.09 80.02C59.09 80.86 59.1 80.88 59.95 80.87C61.13 80.86 62.31 80.81 63.49 80.82C65.18 80.82 66.87 80.85 68.57 80.87C68.81 80.87 68.91 80.82 68.9 80.54C68.86 79.56 68.85 78.58 68.84 77.61C68.84 74.53 68.84 71.45 68.84 68.37C68.84 67.08 68.8 65.78 68.78 64.49C68.76 63.15 68.73 61.81 68.41 60.49C68.17 59.53 67.99 58.56 67.64 57.64C66.71 55.19 65.3 53.05 63.41 51.2C61.48 49.3 59.29 47.88 56.72 47.05C55.46 46.65 54.2 46.24 52.84 46.28C52.45 46.29 52.25 46.43 52.07 46.7C51.4 47.71 50.73 48.72 50.07 49.73C48.85 51.58 47.64 53.43 46.42 55.28C45.57 56.57 44.73 57.86 43.86 59.14C42.8 60.71 41.72 62.27 40.66 63.84C40.44 64.16 40.26 64.5 40.05 64.82C39.78 65.22 39.47 65.6 39.21 66.01C38.79 66.67 38.41 67.35 37.96 68C37.57 68.56 37.06 69.01 36.33 69.01C35.57 69.01 35.01 68.61 34.6 68C33.33 66.16 32.08 64.31 30.81 62.46C30.7 62.3 30.55 62.17 30.44 62.01C30.24 61.69 30.08 61.34 29.88 61.03C29.11 59.84 28.32 58.66 27.54 57.48C26.68 56.16 25.84 54.84 24.99 53.51C23.98 51.95 22.97 50.39 21.97 48.82C21.5 48.08 21.06 47.32 20.57 46.59C20.46 46.43 20.21 46.28 20.02 46.28C19.47 46.28 18.91 46.29 18.38 46.42C17.39 46.65 16.39 46.9 15.43 47.24C14.68 47.5 13.96 47.86 13.27 48.26C12.26 48.85 11.23 49.43 10.32 50.15C9.00001 51.2 7.83001 52.41 6.92001 53.87C6.07001 55.22 5.32001 56.6 4.80001 58.12C4.21001 59.84 3.86001 61.59 3.87001 63.41C3.87001 63.94 3.87001 64.46 3.87001 64.99C3.87001 68.87 3.89001 72.75 3.89001 76.63C3.89001 77.81 3.84001 78.99 3.82001 80.17C3.82001 80.82 3.94001 80.96 4.58001 80.94C5.40001 80.92 6.21001 80.84 7.03001 80.84C9.11001 80.84 11.2 80.86 13.28 80.89C13.55 80.89 13.63 80.81 13.62 80.54C13.59 79.55 13.57 78.55 13.56 77.56C13.53 75.08 13.51 72.61 13.5 70.13C13.5 69.13 13.48 68.13 13.53 67.14C13.54 66.81 13.63 66.4 13.84 66.17C14.33 65.64 14.95 65.25 15.72 65.4C16.63 65.58 16.98 65.74 17.18 66.65C17.23 66.89 17.26 67.13 17.26 67.38C17.26 71.01 17.28 74.65 17.27 78.28C17.27 78.98 17.22 79.67 17.2 80.37C17.2 80.73 17.34 80.88 17.69 80.89C18.38 80.9 19.07 80.9 19.76 80.89C20.6 80.89 21.45 80.85 22.29 80.85C32.14 80.86 42 80.88 51.85 80.89C52.97 80.89 54.08 80.89 55.24 80.89L55.26 80.86ZM36.16 48.17C36.16 48.17 36.16 48.14 36.16 48.13C35.6 48.13 35.03 48.12 34.47 48.13C34.04 48.14 33.94 48.25 33.93 48.64C33.9 49.29 33.89 49.95 33.87 50.6C33.85 51.41 33.84 52.23 33.8 53.04C33.74 54.15 33.63 55.25 33.57 56.36C33.54 56.91 33.6 57.47 33.56 58.03C33.5 58.9 33.79 59.64 34.21 60.36C34.6 61.02 35 61.67 35.39 62.33C35.57 62.64 35.71 62.98 35.89 63.29C36.08 63.61 36.34 63.62 36.58 63.35C36.67 63.25 36.75 63.15 36.83 63.05C37.6 62.01 38.29 60.93 38.82 59.75C38.94 59.48 39.04 59.18 39.04 58.89C39.04 58.04 38.98 57.2 38.93 56.35C38.91 55.96 38.85 55.58 38.81 55.2C38.77 54.72 38.72 54.23 38.71 53.75C38.69 52.77 38.71 51.79 38.68 50.8C38.65 50.03 38.55 49.26 38.51 48.49C38.5 48.26 38.42 48.17 38.2 48.17C37.52 48.17 36.85 48.17 36.17 48.17H36.16Z" fill="#421982"></path><path d="M73.02 76.11C73.02 76.11 72.98 76.07 72.96 76.05C72.98 76.03 73 76.01 73.02 75.99V76.11Z" fill="#421982"></path><path d="M73.02 75.86C73.02 75.86 72.98 75.81 72.96 75.78C72.98 75.76 73 75.75 73.02 75.73V75.85V75.86Z" fill="#421982"></path><path d="M73.02 67.9501C73.02 67.9501 72.98 67.9001 72.96 67.8701L73.02 67.8201V67.9401V67.9501Z" fill="#421982"></path><path d="M73.02 81.5501C73.02 81.5501 72.98 81.5001 72.97 81.4701C72.97 81.4701 73 81.4401 73.02 81.4301V81.5501Z" fill="#421982"></path><path d="M73.02 68.6901C73.02 68.6901 72.98 68.6401 72.95 68.6101C72.97 68.5901 72.99 68.5801 73.02 68.5601V68.6801V68.6901Z" fill="#421982"></path><path d="M73.02 68.9401C73.02 68.9401 72.98 68.8901 72.96 68.8601C72.98 68.8401 73 68.8301 73.02 68.8101V68.9301V68.9401Z" fill="#421982"></path><path d="M73.02 81.3001C73.02 81.3001 72.96 81.2601 72.97 81.2601C72.98 81.2301 73 81.2101 73.02 81.1801V81.3001Z" fill="#421982"></path><path d="M73.02 66.9601C73.02 66.9601 72.98 66.9101 72.96 66.8801C72.98 66.8601 73 66.8501 73.02 66.8301V66.9501V66.9601Z" fill="#421982"></path><path d="M73.02 69.93L72.95 69.85C72.95 69.85 72.99 69.82 73.02 69.8V69.92V69.93Z" fill="#421982"></path><path d="M73.02 65.98C73.02 65.98 72.98 65.94 72.96 65.92L73.02 65.86V65.98Z" fill="#421982"></path><path d="M73.02 70.42C73.02 70.42 72.98 70.37 72.96 70.34C72.98 70.32 73 70.31 73.02 70.29V70.41V70.42Z" fill="#421982"></path><path d="M73.02 70.92C73.02 70.92 72.98 70.87 72.96 70.84C72.98 70.82 73 70.81 73.02 70.79V70.91V70.92Z" fill="#421982"></path><path d="M73.02 64.74C73.02 64.74 72.97 64.7 72.96 64.68C72.96 64.66 73 64.64 73.02 64.62V64.74Z" fill="#421982"></path><path d="M73.02 78.83C73.02 78.83 72.96 78.79 72.96 78.77C72.96 78.75 73 78.73 73.02 78.71V78.83Z" fill="#421982"></path><path d="M73.02 71.91C73.02 71.91 72.98 71.86 72.96 71.83C72.98 71.81 73 71.8 73.02 71.78V71.9V71.91Z" fill="#421982"></path><path d="M73.02 64.49C73.02 64.49 72.96 64.45 72.96 64.43C72.96 64.41 73 64.39 73.02 64.37V64.49Z" fill="#421982"></path><path d="M73.02 72.9C73.02 72.9 72.98 72.85 72.96 72.82C72.98 72.8 73 72.79 73.02 72.77V72.89V72.9Z" fill="#421982"></path><path d="M73.02 73.14C73.02 73.14 72.98 73.1 72.96 73.08C72.98 73.06 73 73.04 73.02 73.02V73.14Z" fill="#421982"></path><path d="M73.02 77.84C73.02 77.84 72.98 77.79 72.96 77.76C72.98 77.74 73 77.73 73.02 77.71V77.83V77.84Z" fill="#421982"></path><path d="M73.02 73.88C73.02 73.88 72.98 73.83 72.95 73.8L73.02 73.75V73.87V73.88Z" fill="#421982"></path><path d="M73.02 77.59C73.02 77.59 72.98 77.54 72.95 77.51C72.97 77.49 72.99 77.48 73.02 77.46V77.58V77.59Z" fill="#421982"></path><path d="M73.02 77.34L72.96 77.26C72.96 77.26 73 77.23 73.02 77.21V77.33V77.34Z" fill="#421982"></path><path d="M73.02 74.87C73.02 74.87 72.98 74.82 72.96 74.79C72.98 74.77 73 74.76 73.02 74.74V74.86V74.87Z" fill="#421982"></path><path d="M73.02 76.85C73.02 76.85 72.98 76.8 72.95 76.77C72.97 76.75 72.99 76.74 73.02 76.72V76.84V76.85Z" fill="#421982"></path><path d="M73.02 76.6C73.02 76.6 72.98 76.55 72.95 76.52C72.97 76.5 72.99 76.49 73.02 76.47V76.59V76.6Z" fill="#421982"></path><path d="M73.02 67.7101C73.02 67.7101 72.98 67.6601 72.95 67.6301C72.97 67.6101 72.99 67.6001 73.02 67.5801V67.7001V67.7101Z" fill="#421982"></path><path d="M73.02 72.09C73.02 72.09 72.98 72.07 72.96 72.06C72.98 72.05 73 72.04 73.02 72.03V72.09Z" fill="#421982"></path><path d="M73.02 75.61C73.02 75.61 72.98 75.58 72.96 75.57C72.98 75.57 73 75.56 73.02 75.55V75.61Z" fill="#421982"></path><path d="M73.02 75.06C73.02 75.06 72.98 75.04 72.96 75.03C72.98 75.02 73 75.01 73.02 75V75.06Z" fill="#421982"></path><path d="M73.02 74.6301C73.02 74.6301 72.98 74.6001 72.96 74.5901C72.98 74.5901 73 74.5801 73.02 74.5701V74.6301Z" fill="#421982"></path><path d="M73.02 74.07C73.02 74.07 72.98 74.05 72.96 74.04C72.98 74.03 73 74.02 73.02 74.01V74.07Z" fill="#421982"></path><path d="M73.02 73.6401C73.02 73.6401 72.98 73.6101 72.96 73.6001C72.98 73.6001 73 73.5901 73.02 73.5801V73.6401Z" fill="#421982"></path><path d="M73.02 72.65C73.02 72.65 72.98 72.62 72.96 72.61C72.98 72.61 73 72.6 73.02 72.59V72.65Z" fill="#421982"></path><path d="M73.02 71.66C73.02 71.66 72.98 71.64 72.96 71.63C72.98 71.62 73 71.61 73.02 71.6V71.66Z" fill="#421982"></path><path d="M73.02 71.1C73.02 71.1 72.98 71.08 72.96 71.07C72.98 71.06 73 71.05 73.02 71.04V71.1Z" fill="#421982"></path><path d="M73.02 70.67C73.02 70.67 72.98 70.65 72.96 70.64C72.98 70.63 73 70.62 73.02 70.61V70.67Z" fill="#421982"></path><path d="M73.02 70.1201C73.02 70.1201 72.98 70.1001 72.96 70.0901C72.98 70.0801 73 70.0701 73.02 70.0601V70.1201Z" fill="#421982"></path><path d="M73.02 80.8C73.02 80.8 72.99 80.78 72.97 80.77C72.99 80.76 73 80.75 73.02 80.74V80.8Z" fill="#421982"></path><path d="M73.02 69.68C73.02 69.68 72.98 69.65 72.96 69.64C72.98 69.64 73 69.63 73.02 69.62V69.68Z" fill="#421982"></path><path d="M73.02 69.1301C73.02 69.1301 72.98 69.1101 72.96 69.1001C72.98 69.0901 73 69.0801 73.02 69.0701V69.1301Z" fill="#421982"></path><path d="M73.02 68.1401C73.02 68.1401 72.98 68.1201 72.96 68.1101C72.98 68.1001 73 68.0901 73.02 68.0801V68.1401Z" fill="#421982"></path><path d="M73.02 62.21C73.02 62.21 73 62.2 72.98 62.19C72.99 62.18 73 62.16 73.02 62.15V62.21Z" fill="#421982"></path><path d="M71.42 84.8801C71.42 84.8801 71.43 84.8401 71.44 84.8201C71.45 84.8401 71.47 84.8601 71.48 84.8801H71.42Z" fill="#421982"></path><path d="M36.24 41.45C35.4 41.34 34.61 41.29 33.85 41.12C32.96 40.92 32.05 40.71 31.22 40.34C30.41 39.98 29.69 39.43 28.94 38.96C28.43 38.64 27.9 38.33 27.43 37.97C26.91 37.56 26.43 37.1 25.94 36.65C25.16 35.93 24.5 35.11 23.83 34.29C23.39 33.75 23.05 33.15 22.65 32.58C22.3 32.08 21.96 31.58 21.63 31.06C21.43 30.75 21.25 30.42 21.08 30.09C20.8 29.55 20.52 29.01 20.25 28.46C20.05 28.07 19.84 27.68 19.69 27.27C19.38 26.43 19.11 25.57 18.83 24.71C18.68 24.23 18.52 23.74 18.42 23.24C18.33 22.82 18.32 22.38 18.27 21.95C18.21 21.5 18.13 21.05 18.07 20.6C17.99 19.89 17.86 19.18 17.85 18.47C17.81 16.34 18.19 14.28 19.02 12.33C19.59 11 20.25 9.71001 20.94 8.44001C21.31 7.76001 21.8 7.14001 22.29 6.55001C22.81 5.92001 23.37 5.32001 23.97 4.77001C24.6 4.19001 25.26 3.65001 25.97 3.17001C27.26 2.30001 28.64 1.62001 30.11 1.11001C30.93 0.820013 31.76 0.580013 32.61 0.390013C33.3 0.240013 34.02 0.200013 34.72 0.120013C35.23 0.070013 35.75 -0.019987 36.26 0.010013C37.22 0.070013 38.18 0.170013 39.13 0.300013C39.87 0.400013 40.6 0.530013 41.33 0.700013C43.28 1.17001 45.04 2.04001 46.67 3.20001C47.64 3.89001 48.58 4.61001 49.44 5.45001C50.47 6.47001 51.31 7.64001 52.03 8.89001C52.64 9.96001 53.2 11.06 53.67 12.2C53.97 12.93 54.09 13.74 54.27 14.52C54.39 15.08 54.49 15.66 54.56 16.23C54.62 16.73 54.65 17.23 54.66 17.73C54.66 18.73 54.7 19.73 54.63 20.72C54.58 21.4 54.39 22.07 54.25 22.75C54.12 23.37 54.01 23.99 53.85 24.61C53.69 25.25 53.5 25.89 53.29 26.51C53.11 27.03 52.89 27.53 52.69 28.04C52.34 28.89 51.91 29.69 51.4 30.45C50.88 31.22 50.42 32.03 49.89 32.8C49.51 33.36 49.07 33.88 48.63 34.4C48.11 35.02 47.59 35.63 47.03 36.21C46.56 36.7 46.03 37.13 45.53 37.59C44.26 38.74 42.86 39.7 41.26 40.33C40.48 40.64 39.65 40.85 38.83 41.03C37.97 41.22 37.09 41.32 36.25 41.45H36.24ZM21.66 18.58C21.75 19.25 21.81 19.87 21.91 20.49C22.03 21.24 22.11 21.99 22.31 22.72C22.87 24.79 23.66 26.77 24.74 28.61C25.43 29.8 26.2 30.95 27.02 32.05C27.81 33.1 28.8 33.97 29.84 34.78C31.26 35.89 32.81 36.72 34.57 37.15C35.36 37.34 36.16 37.54 36.96 37.41C37.8 37.27 38.64 37.01 39.44 36.73C40.18 36.47 40.89 36.13 41.58 35.76C42.14 35.46 42.7 35.14 43.17 34.72C43.93 34.05 44.64 33.33 45.32 32.58C46.09 31.74 46.8 30.86 47.25 29.8C47.34 29.58 47.47 29.37 47.58 29.16C48 28.32 48.45 27.49 48.83 26.63C49.14 25.93 49.38 25.2 49.63 24.47C49.88 23.75 50.15 23.03 50.32 22.28C50.46 21.68 50.47 21.05 50.54 20.43C50.61 19.87 50.72 19.31 50.74 18.75C50.79 17.58 50.71 16.41 50.49 15.25C50.31 14.28 50.03 13.33 49.56 12.46C49.17 11.75 48.75 11.05 48.32 10.37C47.19 8.55001 45.71 7.05001 43.88 5.95001C41.59 4.57001 39.09 3.79001 36.38 3.82001C35.56 3.82001 34.73 3.80001 33.93 4.01001C33.37 4.16001 32.8 4.34001 32.23 4.42001C31.27 4.56001 30.43 4.99001 29.61 5.46001C28.97 5.83001 28.34 6.22001 27.73 6.64001C26.52 7.47001 25.44 8.45001 24.67 9.72001C24.17 10.54 23.7 11.39 23.19 12.2C22.69 12.99 22.51 13.9 22.22 14.76C22.05 15.27 22.03 15.83 21.95 16.37C21.84 17.11 21.74 17.85 21.65 18.56L21.66 18.58Z" fill="#421982"></path><path d="M58.81 61.6501C58.28 61.6501 57.83 61.6601 57.38 61.6501C56.69 61.6301 55.99 61.5701 55.3 61.5601C53.86 61.5401 52.43 61.5301 50.99 61.5201C49.42 61.5201 49.03 60.2901 49.31 59.2301C49.53 58.4101 49.99 57.9001 51.18 57.8901C53.27 57.8601 55.36 57.8301 57.45 57.8201C58.21 57.8201 58.96 57.8601 59.72 57.8801C61.12 57.9201 61.73 59.3001 61.51 60.3301C61.31 61.2201 60.68 61.4601 59.93 61.5801C59.54 61.6401 59.13 61.6301 58.81 61.6501Z" fill="#421982"></path></g><defs><clipPath id="clip0_243_1124"><rect width="73.02" height="84.88" fill="white"></rect></clipPath></defs></svg> 